# xmcd
#
# Track frame offsets:
#	150
#	25184
#	30449
#	50247
#	75465
#	93938
#	123437
#	146535
#	175679
#	180523
#	211916
#	237174
#	261959
#	289840
#	321847
#
# Disc length: 4669 seconds
# Revision: 0
# Processed by: cddbd v1.5.2PL0 Copyright (c) Steve Scherf et al.
# Submitted via: dBpowerAMP V12.0
#
DISCID=c9123b0f
DTITLE=Various Artist - Hello Fear
DYEAR=2011
DGENRE=Gospel
TTITLE0=Kirk Franklin - Hello Fear
TTITLE1=Kirk Franklin - The Story Of Fear
TTITLE2=Kirk Franklin - Before I Die
TTITLE3=Kirk Franklin - I Am
TTITLE4=Kirk Franklin - But The Blood
TTITLE5=Kirk Franklin - Everyone Hurts
TTITLE6=Kirk Franklin - I Smile
TTITLE7=Kirk Franklin featuring Mali Music - Give Me
TTITLE8=Kirk Franklin - Never Alone Interlude
TTITLE9=Kirk Franklin featuring Marvin Sapp and Beverly Crawford - The Altar
TTITLE10=Kirk Franklin featuring Rance Allen, Marvin Winans, John P. Kee and Isaac Carree - Something About The Name Jesus Pt. 2
TTITLE11=Kirk Franklin - Today
TTITLE12=Kirk Franklin - The Moment #1
TTITLE13=Kirk Franklin - The Moment #2
TTITLE14=Kirk Franklin - A God Like You
EXTD=
EXTT0=
EXTT1=
EXTT2=
EXTT3=
EXTT4=
EXTT5=
EXTT6=
EXTT7=
EXTT8=
EXTT9=
EXTT10=
EXTT11=
EXTT12=
EXTT13=
EXTT14=
PLAYORDER=
